<svg id="b9a78677-c6ff-4166-85e2-4e2750d12f14" data-name="Layer 1" xmlns="http://www.w3.org/2000/svg" width="835" height="673.72177" viewBox="0 0 835 673.72177"><title>bookshelves</title><rect x="49.77062" width="338" height="597" fill="#3f3d56"/><ellipse cx="417.5" cy="599.92154" rx="417.5" ry="9.69734" fill="#3f3d56"/><ellipse cx="417.5" cy="631.99735" rx="289.03846" ry="6.71354" fill="#3f3d56"/><ellipse cx="417.63207" cy="661.08936" rx="235.78148" ry="5.47653" fill="#3f3d56"/><rect x="49.77062" y="114.5" width="338" height="2" fill="#d0cde1"/><rect x="49.77062" y="236.5" width="338" height="2" fill="#d0cde1"/><rect x="49.77062" y="358.5" width="338" height="2" fill="#d0cde1"/><rect x="49.77062" y="480.5" width="338" height="2" fill="#d0cde1"/><path d="M387.29845,379.24556l-.00024.00006L381.339,360.7148l-1.146,1.01562A31.39756,31.39756,0,0,1,355.255,369.75l-1.52343-.15723,5.95916,18.5307-.00018.00006,4.09033,12.71924.00019-.00006,13.76281,42.79681-.0003.00012,4.09033,12.71827h0l4.51758,14.04785,1.11328-.792a42.83993,42.83993,0,0,1,25.12793-8.08008l1.36621-.00586L409.24163,447.481l.00018-.00006-4.09033-12.71924-.00012.00007-13.76294-42.79731.00036-.00012Zm-30.73486-7.37939a33.03408,33.03408,0,0,0,23.7998-7.65332l5.03113,15.64495-23.7998,7.65339Zm5.64355,17.54931,23.79932-7.65332,2.86572,8.91016-23.79932,7.65381Zm48.81738,70.14258a44.63353,44.63353,0,0,0-23.7998,7.65332l-3.68713-11.46564,23.80005-7.65258Zm-4.29931-13.36914-23.79932,7.65332-2.86572-8.91064,23.79932-7.65332ZM403.24743,435.374l-23.79981,7.65332L365.685,400.23042l23.79962-7.65374Z" transform="translate(-182.5 -113.13912)" fill="#d0cde1"/><path d="M269.29845,257.24556l-.00024.00006L263.339,238.7148l-1.146,1.01562A31.39756,31.39756,0,0,1,237.255,247.75l-1.52343-.15723,5.95916,18.5307-.00018.00006,4.09033,12.71924.00012-.00006,13.76276,42.79687-.00018.00006,4.09033,12.71924.00018-.00006,4.5174,14.04743,1.11328-.792a42.84034,42.84034,0,0,1,25.12793-8.08056l1.36621-.00537L291.2415,325.481l.00031-.00006-4.09033-12.71924-.00025.00007-13.76287-42.79731.00042-.00012Zm-30.73486-7.37939a33.02342,33.02342,0,0,0,23.7998-7.65332l5.03113,15.64495-23.7998,7.65339Zm5.64355,17.54931,23.79932-7.65332,2.86572,8.91016-23.79932,7.65381Zm48.81738,70.14258a44.64043,44.64043,0,0,0-23.7998,7.65332l-3.68683-11.46478,23.79975-7.65338Zm-4.29931-13.36914-23.79932,7.65332-2.86572-8.91064,23.79932-7.65332ZM285.24743,313.374l-23.79981,7.65332L247.685,278.23042l23.79962-7.65374Z" transform="translate(-182.5 -113.13912)" fill="#d0cde1"/><path d="M965.19223,230.61838A13.70673,13.70673,0,1,1,978.899,216.91165,13.72243,13.72243,0,0,1,965.19223,230.61838Zm0-25.129a11.42227,11.42227,0,1,0,11.42227,11.42227A11.435,11.435,0,0,0,965.19223,205.48938Z" transform="translate(-182.5 -113.13912)" fill="#3f3d56"/><path d="M989.94463,628.1821H967.39576V605.63323h22.54887Zm-20.81434-1.73452H988.2101V607.36776H969.13029Z" transform="translate(-182.5 -113.13912)" fill="#3f3d56"/><path d="M626.6911,274.71348l-15.38019-16.48943,16.48943-15.38019,15.38019,16.48943Zm-12.92868-16.4041,13.014,13.95259L640.729,259.248l-13.014-13.95259Z" transform="translate(-182.5 -113.13912)" fill="#3f3d56"/><polygon points="687.908 364.153 656.188 402.64 703.133 458.044 734.43 421.249 687.908 364.153" fill="#1890ff"/><polygon points="687.908 364.153 656.188 402.64 703.133 458.044 734.43 421.249 687.908 364.153" opacity="0.1"/><path d="M839.95668,516.20231h0a15.9424,15.9424,0,0,1,2.58625-3.45319l29.13369-29.53554s10.15038-1.69172,12.265,3.38346L846.7236,517.04817Z" transform="translate(-182.5 -113.13912)" fill="#f2f2f2"/><path d="M838.47642,515.56791l43.13911,65.97746s4.22932,2.96053,8.45865,1.2688l44.19644-29.81674-46.9455-71.05265-42.29325,32.98873Z" transform="translate(-182.5 -113.13912)" fill="#1890ff"/><rect x="864.7219" y="516.88589" width="34.97082" height="12.96671" transform="translate(-324.39203 468.75916) rotate(-33.94952)" fill="#3f3d56"/><path d="M874.77062,461.63912s4,30-10,29-7-27-7-27Z" transform="translate(-182.5 -113.13912)" fill="#ffb8b8"/><path d="M764.77062,353.63912l-17-2v-2l-16-2s-35,66-33,108,29,226,29,226,42-4,48-16l-7-41-4-49s27,137,39,137,47-7,44-12-39-159-39-159l-4-75-9-110Z" transform="translate(-182.5 -113.13912)" fill="#2f2e41"/><circle cx="596.27062" cy="112.5" r="28" fill="#ffb8b8"/><path d="M779.77062,244.63912s11,25,3,36,43-18,43-18-25-24-26-35Z" transform="translate(-182.5 -113.13912)" fill="#ffb8b8"/><path d="M825.77062,258.63912s-26,16-47,10l-52,85,86,16,19-108Z" transform="translate(-182.5 -113.13912)" fill="#d0cde1"/><path d="M813.77062,255.63912s4-5,9-2,37,4,39,17-48,211-48,211l-8-2s9-3-26-12-40-39-32-75,11-58,11-58Z" transform="translate(-182.5 -113.13912)" fill="#575a89"/><path d="M785.06589,262.54651s-35.29527,15.09261-36.29527,20.09261-39,95-39,95l-8,7,4,3-29,64s1,8,16,8h9s15-76,25-90S801.36117,275.45391,785.06589,262.54651Z" transform="translate(-182.5 -113.13912)" fill="#575a89"/><path d="M848.77062,265.63912s13-4,16,22,2,43,2,43l13,136-28,3-25-153Z" transform="translate(-182.5 -113.13912)" fill="#575a89"/><path d="M735.77062,674.63912s0,20-9,23-36,27-4,26,29-16,29-16v-4l8,4,16-4s5-35,0-38S735.77062,674.63912,735.77062,674.63912Z" transform="translate(-182.5 -113.13912)" fill="#2f2e41"/><path d="M810.77062,707.63912s1,30-11,44-25,33-9,35,45-10,44-17,0-9,0-9h5l8-6s5-49-4-53S810.77062,707.63912,810.77062,707.63912Z" transform="translate(-182.5 -113.13912)" fill="#2f2e41"/><path d="M724.77062,329.63912l7-10s13-12,22-6-16.84673,23.4033-16.84673,23.4033H729.702l-2.93141,2.00221Z" transform="translate(-182.5 -113.13912)" fill="#ffb8b8"/><circle cx="580.77062" cy="236" r="4" fill="#2f2e41"/><circle cx="579.77062" cy="251" r="4" fill="#2f2e41"/><path d="M714.77062,342.63912l12-23s.14622,21.24174,7.57311,21.62087l-15.57311,22.37913Z" transform="translate(-182.5 -113.13912)" fill="#575a89"/><path d="M742.32041,217.37419s-16.17271-45.81886,36.54611-40.97562c0,0,33.89223-14.05024,54.93967,27.598l21.65007,43.7463-6.37708-1.88167-1.41244,6.39024-8.74926,4.33-5.64686-7.00833.13394,9.95453-74.16014,23.82816s29.63108-27.36121,22.4441-63.45194l-4.99805,8.22027Z" transform="translate(-182.5 -113.13912)" fill="#2f2e41"/><path d="M498.27062,568.03912v11.05a10.92106,10.92106,0,0,1-10.76563,11.05H456.03624a10.92106,10.92106,0,0,1-10.76562-11.05v-11.05a10.921,10.921,0,0,1,10.76562-11.05h9.9375v-.85h11.59375v.85h9.9375A10.921,10.921,0,0,1,498.27062,568.03912Z" transform="translate(-182.5 -113.13912)" fill="#1890ff"/><path d="M496.27062,551.13912h-12v-17h-6v-8.78a4.16869,4.16869,0,0,0,1.41.23c3.22,0,8.23-2.69,12.54-6.17a27.58655,27.58655,0,0,0,8.42-12.79l.37-1.35-1.39.08a27.511,27.511,0,0,0-14.3,5.5,34.91082,34.91082,0,0,0-7.05,7.41v-12.63c2.63-1.77,4-8.16,4-14.5a27.50477,27.50477,0,0,0-4.69-14.58l-.81-1.13-.81,1.13a27.50477,27.50477,0,0,0-4.69,14.58c0,7.1,1.72,14.26995,5,14.93v28.07h-6v17h-12a13.01242,13.01242,0,0,0-13,13v13a13.01247,13.01247,0,0,0,13,13h38a13.01247,13.01247,0,0,0,13-13v-13A13.01242,13.01242,0,0,0,496.27062,551.13912Zm-9.7-38.73005a25.45421,25.45421,0,0,1,11.64-4.87,25.33624,25.33624,0,0,1-7.24,10.33c-6.09,4.9-11.45,6.51-12.32,5.42C477.77062,522.20912,480.49059,517.31911,486.57061,512.40907Zm-13.3-21.27a25.4018,25.4018,0,0,1,3.5-12.12,25.327,25.327,0,0,1,3.5,12.12c0,7.82-2.11,13-3.5,13S473.27062,498.95912,473.27062,491.13912Zm34,86a11.00657,11.00657,0,0,1-11,11h-38a11.00657,11.00657,0,0,1-11-11v-13a11.00656,11.00656,0,0,1,11-11h14v-17h10v17h14a11.00656,11.00656,0,0,1,11,11Z" transform="translate(-182.5 -113.13912)" fill="#d0cde1"/><path d="M348.27062,384.13912v3.42614h-25v-3.42614h-2v68h2v-2.08361h25v2.08361h2v-68Zm0,54.26923h-25V399.21243h25Z" transform="translate(-182.5 -113.13912)" fill="#1890ff"/><path d="M309.27062,391.13912v3.07345h-25v-3.07345h-2v61h2V450.27h25v1.86912h2v-61Zm0,48.68269h-25v-35.161h25Z" transform="translate(-182.5 -113.13912)" fill="#1890ff"/><path d="M270.27062,384.13912v3.22461h-25v-3.22461h-2v64h2v-1.961h25v1.961h2v-64Zm0,51.07692h-25V398.32576h25Z" transform="translate(-182.5 -113.13912)" fill="#1890ff"/><path d="M554.27062,264.13912v3.42614h-25v-3.42614h-2v68h2v-2.08361h25v2.08361h2v-68Zm0,54.26923h-25V279.21243h25Z" transform="translate(-182.5 -113.13912)" fill="#1890ff"/><path d="M515.27062,271.13912v3.07345h-25v-3.07345h-2v61h2V330.27h25v1.86912h2v-61Zm0,48.68269h-25v-35.161h25Z" transform="translate(-182.5 -113.13912)" fill="#1890ff"/><path d="M476.27062,264.13912v3.22461h-25v-3.22461h-2v64h2v-1.961h25v1.961h2v-64Zm0,51.07692h-25V278.32576h25Z" transform="translate(-182.5 -113.13912)" fill="#1890ff"/><path d="M348.87059,365.21907a31.3817,31.3817,0,0,1-26.19995,0l-1.4-.61v105.9l1.3-.42a42.8263,42.8263,0,0,1,26.4,0l1.3.42v-105.9Zm-25.6,77.17005v-44.96h25v44.96Zm25,2v9.36h-25v-9.36Zm-25-48.96v-9.36h25v9.36Zm25,72.36a44.78117,44.78117,0,0,0-25,0v-12.04h25Zm0-83.72h-25v-16.43a33.082,33.082,0,0,0,25,0Z" transform="translate(-182.5 -113.13912)" fill="#d0cde1"/><path d="M309.96837,470.09224l1.30225.41309V364.60787l-1.40235.61572a31.39073,31.39073,0,0,1-26.19531,0l-1.40234-.61572V470.50533l1.30224-.41309A42.82272,42.82272,0,0,1,309.96837,470.09224Zm-.69775-16.34277h-25v-9.36035h25Zm0-58.31641h-25v-9.36035h25Zm-25-27.79394a33.05848,33.05848,0,0,0,25,0v16.43359h-25Zm0,29.79394h25v44.95606h-25Zm0,58.31641h25v12.043a44.63264,44.63264,0,0,0-25,0Z" transform="translate(-182.5 -113.13912)" fill="#d0cde1"/><path d="M270.96837,470.09224l1.30225.41309V364.60787l-1.40235.61572a31.39073,31.39073,0,0,1-26.19531,0l-1.40234-.61572V470.50533l1.30224-.41309A42.82272,42.82272,0,0,1,270.96837,470.09224Zm-.69775-16.34277h-25v-9.36035h25Zm0-58.31641h-25v-9.36035h25Zm-25-27.79394a33.05848,33.05848,0,0,0,25,0v16.43359h-25Zm0,29.79394h25v44.95606h-25Zm0,58.31641h25v12.043a44.63264,44.63264,0,0,0-25,0Z" transform="translate(-182.5 -113.13912)" fill="#d0cde1"/><path d="M476.96837,348.09224l1.30225.41309V242.60787l-1.40235.61572a31.39073,31.39073,0,0,1-26.19531,0l-1.40234-.61572V348.50533l1.30224-.41309A42.83709,42.83709,0,0,1,476.96837,348.09224Zm-.69775-16.34277h-25v-9.36035h25Zm0-58.31641h-25v-9.36035h25Zm-25-27.79394a33.05848,33.05848,0,0,0,25,0v16.43359h-25Zm0,29.79394h25v44.95606h-25Zm0,58.31641h25v12.043a44.6444,44.6444,0,0,0-25,0Z" transform="translate(-182.5 -113.13912)" fill="#d0cde1"/><path d="M515.96837,348.09224l1.30225.41309V242.60787l-1.40235.61572a31.39073,31.39073,0,0,1-26.19531,0l-1.40234-.61572V348.50533l1.30224-.41309A42.83709,42.83709,0,0,1,515.96837,348.09224Zm-.69775-16.34277h-25v-9.36035h25Zm0-58.31641h-25v-9.36035h25Zm-25-27.79394a33.05848,33.05848,0,0,0,25,0v16.43359h-25Zm0,29.79394h25v44.95606h-25Zm0,58.31641h25v12.043a44.6444,44.6444,0,0,0-25,0Z" transform="translate(-182.5 -113.13912)" fill="#d0cde1"/><path d="M554.96788,348.09224l1.30274.41309V242.60787l-1.40235.61572a31.39073,31.39073,0,0,1-26.19531,0l-1.40234-.61572V348.50533l1.30224-.41309A42.83554,42.83554,0,0,1,554.96788,348.09224Zm-.69726-16.34277h-25v-9.36035h25Zm0-58.31641h-25v-9.36035h25Zm-25-27.79394a33.05848,33.05848,0,0,0,25,0v16.43359h-25Zm0,29.79394h25v44.95606h-25Zm0,70.35938v-12.043h25v12.043a44.6444,44.6444,0,0,0-25,0Z" transform="translate(-182.5 -113.13912)" fill="#d0cde1"/></svg>